<?xml version="1.0" encoding="UTF-8"?>
<!DOCTYPE svg PUBLIC "-//W3C//DTD SVG 1.1//EN" "http://www.w3.org/Graphics/SVG/1.1/DTD/svg11.dtd">
<!-- Creator: CorelDRAW X7 -->
<svg xmlns="http://www.w3.org/2000/svg" xml:space="preserve" width="1.52333in" height="1.52333in" version="1.1" style="shape-rendering:geometricPrecision; text-rendering:geometricPrecision; image-rendering:optimizeQuality; fill-rule:evenodd; clip-rule:evenodd"
viewBox="0 0 152333 152333"
 xmlns:xlink="http://www.w3.org/1999/xlink">
 <defs>
  <style type="text/css">
   <![CDATA[
    .fil2 {fill:none}
    .fil0 {fill:#AAAAAA}
    .fil1 {fill:#848688;fill-rule:nonzero}
   ]]>
  </style>
 </defs>
 <g id="Layer_x0020_1">
  <metadata id="CorelCorpID_0Corel-Layer"/>
  <g id="_2043411228880">
   <path class="fil0" d="M23930 93119l0 -52209c0,-8082 11489,-5971 23541,-5872 15906,132 11763,-9569 19844,-9569 19398,0 16435,-1565 20420,3109 7440,8727 14526,6523 29613,6418 5335,-36 8793,739 8793,5914l0 52209c0,3557 -2326,5883 -5882,5883l-90447 0c-3557,0 -5882,-2326 -5882,-5883zm26472 -61768c-10635,0 7,-5147 -12501,-5147 -1685,0 -1992,206 -3001,676 -3320,1545 -925,2111 -3527,3826 -1735,1143 -1132,409 -3556,855 -3600,664 -7564,3359 -7564,7879l0 55150c0,4297 3792,8089 8088,8089l93388 0c4297,0 8089,-3792 8089,-8089l0 -55150c0,-4314 -3961,-7366 -7498,-7945 -3536,-578 -11318,-149 -15298,-143 -6961,9 -8909,1095 -12711,-2732 -9169,-9228 -5914,-6828 -29938,-6828 -4382,0 -8290,9559 -13971,9559z"/>
   <path class="fil0" d="M75403 89443c-24342,0 -30669,-32750 -10010,-42365 16018,-7455 31551,4962 31940,19632 326,12318 -10930,22733 -21930,22733zm-26472 -22060c0,22243 27023,34425 44316,18579 15193,-13921 7588,-45052 -18579,-45052 -14061,0 -25737,11614 -25737,26473z"/>
   <path class="fil0" d="M67315 67383c0,-10639 15441,-10717 15441,0 0,9592 -15441,9592 -15441,0zm-3677 -736c0,15931 22795,15931 22795,0 0,-14718 -22795,-14718 -22795,0z"/>
   <path class="fil0" d="M29812 43116c0,8020 -1610,6618 11030,6618 2860,0 2206,-1888 2206,-6618 0,-3268 -3437,-2206 -11030,-2206 -1694,0 -2206,512 -2206,2206z"/>
  </g>
  <path class="fil1" d="M14454 123163l0 4871c0,172 -63,323 -188,452 -125,129 -276,194 -452,194 -176,0 -327,-63 -452,-188 -125,-125 -188,-278 -188,-458l0 -6831c-16,-227 61,-399 229,-516 168,-117 338,-163 510,-135 172,27 309,111 411,252l3791 5246 0 -4835c0,-172 63,-321 188,-446 125,-125 274,-188 446,-188 172,0 323,63 452,188 129,125 193,274 193,446l0 6819c0,180 -64,333 -193,458 -129,125 -284,188 -464,188 -180,0 -336,-79 -469,-235 -31,-32 -51,-55 -59,-71l-3755 -5211z"/>
  <path id="1" class="fil1" d="M23015 127435c-778,-829 -1168,-1823 -1168,-2981 0,-1158 390,-2151 1168,-2981 779,-829 1728,-1244 2846,-1244 1119,0 2068,421 2846,1262 779,841 1168,1833 1168,2975 0,1142 -395,2128 -1185,2958 -352,391 -775,698 -1268,921 -493,223 -1005,335 -1537,335 -1135,0 -2091,-415 -2870,-1245zm170 -2981c0,790 262,1469 787,2037 524,567 1156,851 1895,851 740,0 1369,-288 1890,-863 520,-575 780,-1250 780,-2025 0,-774 -258,-1449 -774,-2024 -517,-575 -1149,-863 -1896,-863 -747,0 -1381,284 -1901,851 -521,567 -781,1246 -781,2036z"/>
  <path id="2" class="fil1" d="M35790 121109c0,-179 63,-332 188,-457 125,-126 278,-188 458,-188 180,0 334,62 463,188 129,125 194,278 194,457l0 6925c0,180 -65,333 -194,458 -129,125 -283,188 -463,188 -180,0 -333,-63 -458,-188 -125,-125 -188,-278 -188,-458l0 -6925z"/>
  <path id="3" class="fil1" d="M42832 125710l-23 0c-228,0 -407,-90 -540,-270l-1679 -2347 0 4941c0,180 -64,333 -194,458 -128,125 -283,188 -463,188 -180,0 -333,-63 -458,-188 -125,-125 -188,-278 -188,-458l0 -6925c0,-179 63,-332 188,-457 125,-126 278,-188 458,-188l35 0c227,0 399,90 517,270l2335 3239 2336 -3239c133,-180 309,-270 528,-270l12 0c180,8 334,74 463,199 130,126 194,274 194,446l0 6925c0,172 -64,323 -194,452 -129,129 -283,194 -463,194 -180,0 -333,-63 -458,-188 -125,-125 -188,-278 -188,-458l0 -4941 -1690 2347c-133,180 -309,270 -528,270z"/>
  <path id="4" class="fil1" d="M53958 128269l-575 -1526 -2852 0 -575 1526c-110,274 -299,411 -569,411 -270,0 -464,-96 -581,-288 -118,-192 -141,-389 -71,-593l2594 -6913c55,-125 139,-227 252,-305 114,-78 237,-113 370,-105 297,-16 505,121 622,410l2594 6913c70,204 47,401 -71,593 -117,192 -311,288 -580,288 -270,0 -456,-137 -558,-411zm-2958 -2817l1902 0 -951 -2523 -951 2523z"/>
  <path id="5" class="fil1" d="M63688 127213c0,93 -20,180 -59,257l0 12c-39,110 -113,204 -223,282 -782,610 -1671,916 -2664,916 -1197,0 -2218,-409 -3063,-1227 -846,-818 -1268,-1813 -1268,-2987 0,-1173 422,-2173 1268,-2999 845,-825 1866,-1238 3063,-1238 1009,0 1901,305 2676,915 149,110 235,259 258,447 24,187 -19,353 -129,498 -110,145 -258,229 -446,253 -188,23 -356,-24 -505,-141 -548,-423 -1199,-634 -1954,-634 -755,0 -1426,282 -2013,845 -586,564 -880,1244 -880,2042 0,798 295,1479 886,2042 591,564 1293,846 2107,846 556,0 1091,-149 1608,-446l0 -1608 -1678 0c-181,0 -337,-67 -470,-200 -133,-133 -200,-291 -200,-475 0,-184 65,-339 194,-464 129,-125 288,-188 476,-188l2335 0c188,0 348,63 481,188 133,125 200,282 200,470l0 2594z"/>
  <path id="6" class="fil1" d="M66974 128680c-180,0 -333,-63 -458,-188 -125,-125 -188,-278 -188,-458l0 -6925c0,-179 63,-332 188,-457 125,-126 278,-188 458,-188l3838 0c172,0 323,62 452,188 129,125 193,278 193,457 0,180 -64,335 -193,464 -129,129 -280,194 -452,194l-3181 0 0 2148 2735 0c172,0 323,64 452,193 129,129 193,282 193,458 0,176 -62,328 -187,458 -126,129 -278,193 -458,193l-2735 0 0 2160 3181 0c172,0 323,64 452,193 129,130 193,282 193,458 0,176 -64,329 -193,458 -129,129 -280,194 -452,194l-3803 0 -23 -12 -12 12z"/>
  <path id="7" class="fil1" d="M81574 128269l-575 -1526 -2852 0 -575 1526c-109,274 -299,411 -569,411 -270,0 -464,-96 -581,-288 -118,-192 -141,-389 -70,-593l2593 -6913c55,-125 139,-227 253,-305 113,-78 236,-113 369,-105 298,-16 505,121 622,410l2594 6913c71,204 47,401 -70,593 -118,192 -311,288 -581,288 -270,0 -456,-137 -558,-411zm-2957 -2817l1901 0 -951 -2523 -950 2523z"/>
  <path id="8" class="fil1" d="M87184 128633c-23,0 -58,-24 -105,-71l-12 0c-8,-8 -35,-27 -82,-58 -8,-16 -20,-34 -35,-53 -16,-20 -28,-34 -35,-42 -8,-7 -18,-25 -30,-52 -12,-27 -25,-49 -41,-65l-2875 -6854c-71,-157 -73,-319 -6,-487 66,-168 185,-284 357,-346 157,-71 317,-73 482,-6 164,66 281,182 352,346l2289 5434 2288 -5434c71,-164 190,-280 358,-346 168,-67 331,-65 487,6 165,62 280,178 346,346 67,168 69,330 6,487l-2898 6854 -47 94c0,8 -4,16 -12,23l-153 153c-16,16 -41,31 -76,47 -35,16 -88,35 -159,59l-23 0c-31,8 -73,12 -123,12 -51,0 -88,-4 -112,-12l-23 0c-32,-16 -63,-24 -94,-24l-12 -11 -12 0z"/>
  <path id="9" class="fil1" d="M97959 128269l-576 -1526 -2852 0 -575 1526c-109,274 -299,411 -569,411 -270,0 -463,-96 -581,-288 -117,-192 -141,-389 -70,-593l2594 -6913c54,-125 139,-227 252,-305 113,-78 237,-113 370,-105 297,-16 504,121 622,410l2593 6913c71,204 47,401 -70,593 -117,192 -311,288 -581,288 -270,0 -456,-137 -557,-411zm-2958 -2817l1901 0 -950 -2523 -951 2523z"/>
  <path id="10" class="fil1" d="M100857 121109c0,-179 63,-332 188,-457 125,-126 278,-188 458,-188 180,0 334,62 464,188 129,125 193,278 193,457l0 6925c0,180 -64,333 -193,458 -130,125 -284,188 -464,188 -180,0 -333,-63 -458,-188 -125,-125 -188,-278 -188,-458l0 -6925z"/>
  <path id="11" class="fil1" d="M105000 128680c-180,0 -332,-63 -457,-188 -126,-125 -188,-278 -188,-458l0 -6925c0,-179 62,-332 188,-457 125,-126 277,-188 457,-188 180,0 335,62 464,188 129,125 193,278 193,457l0 6268 3181 0c172,0 323,64 452,193 129,130 194,282 194,458 0,176 -65,329 -194,458 -129,129 -280,194 -452,194l-3838 0z"/>
  <path id="12" class="fil1" d="M115728 128269l-575 -1526 -2852 0 -575 1526c-110,274 -300,411 -570,411 -269,0 -463,-96 -580,-288 -118,-192 -141,-389 -71,-593l2594 -6913c55,-125 139,-227 252,-305 114,-78 237,-113 370,-105 297,-16 505,121 622,410l2594 6913c70,204 46,401 -71,593 -117,192 -311,288 -581,288 -270,0 -455,-137 -557,-411zm-2958 -2817l1902 0 -951 -2523 -951 2523z"/>
  <path id="13" class="fil1" d="M119237 128680l-12 -12c-7,0 -19,4 -35,12 -180,0 -333,-63 -458,-188 -125,-125 -188,-278 -188,-458l0 -6925c0,-179 63,-332 188,-457 125,-126 278,-188 458,-188l1667 0c618,0 1144,217 1578,651 435,435 652,929 652,1485 0,556 -149,1033 -446,1432 360,227 647,528 862,903 216,376 323,783 323,1221 0,696 -245,1291 -733,1784 -489,493 -1082,740 -1778,740l-2078 0zm610 -6913l0 1877 1010 0c258,0 477,-93 657,-281 180,-188 270,-411 270,-669 0,-258 -90,-477 -270,-657 -180,-180 -399,-270 -657,-270l-1010 0zm0 3180l0 2430 1468 0c336,-8 622,-129 856,-364 235,-235 352,-520 352,-857 0,-336 -117,-620 -352,-851 -234,-231 -520,-350 -856,-358l-1468 0z"/>
  <path id="14" class="fil1" d="M126162 128680c-180,0 -333,-63 -458,-188 -125,-125 -188,-278 -188,-458l0 -6925c0,-179 63,-332 188,-457 125,-126 278,-188 458,-188 180,0 334,62 463,188 129,125 194,278 194,457l0 6268 3181 0c172,0 322,64 452,193 129,130 193,282 193,458 0,176 -64,329 -193,458 -130,129 -280,194 -452,194l-3838 0z"/>
  <path id="15" class="fil1" d="M132770 128680c-180,0 -333,-63 -458,-188 -125,-125 -188,-278 -188,-458l0 -6925c0,-179 63,-332 188,-457 125,-126 278,-188 458,-188l3837 0c173,0 323,62 452,188 130,125 194,278 194,457 0,180 -64,335 -194,464 -129,129 -279,194 -452,194l-3180 0 0 2148 2734 0c173,0 323,64 452,193 130,129 194,282 194,458 0,176 -63,328 -188,458 -125,129 -278,193 -458,193l-2734 0 0 2160 3180 0c173,0 323,64 452,193 130,130 194,282 194,458 0,176 -64,329 -194,458 -129,129 -279,194 -452,194l-3802 0 -24 -12 -11 12z"/>
  <rect class="fil2" x="-137" y="2" width="152083" height="152343"/>
 </g>
</svg>
